<svg width="262" height="182" viewBox="0 0 262 182" fill="none" xmlns="http://www.w3.org/2000/svg">
<path d="M5.53616 125.754C5.88288 124.943 6.11394 124.017 6.57824 123.205L11.4472 113.585C12.1428 111.961 14.2272 108.947 15.1561 107.674C15.6182 106.979 21.1828 101.414 21.2982 101.299C23.0359 100.256 24.8916 99.2117 26.745 98.2853C32.0761 95.852 32.3096 95.1564 35.5539 100.719C37.7561 104.543 28.8316 111.383 26.9782 113.816C23.3848 118.337 19.4425 126.681 19.4425 126.681C19.2114 126.914 19.0957 127.261 18.8647 127.492C17.24 131.55 14.9224 137.112 13.9957 142.212C13.88 143.023 13.5311 143.952 13.4157 144.763C13.3001 145.921 12.4891 151.601 12.4891 153.108C12.0245 164.235 13.1847 165.046 15.8514 168.87C18.0513 171.999 24.3115 173.506 25.0071 173.624C26.0491 173.97 26.9782 174.086 28.0203 173.624C28.4848 173.506 28.947 173.275 29.2959 172.928C34.047 168.986 34.9737 165.626 36.1336 162.728C36.7135 160.988 38.7979 155.89 38.4515 151.717C38.4515 151.252 38.5671 150.675 38.6825 150.21C38.7982 149.284 38.916 148.239 39.0314 147.312C38.1048 147.081 37.1757 147.081 36.3647 147.544C35.7847 147.777 28.3668 150.675 25.8178 150.906C25.4689 150.906 25.1222 150.79 24.7757 150.675C24.5423 150.557 24.3112 150.441 23.9623 150.21C24.4269 149.05 25.0068 148.008 25.4689 146.848C25.8178 146.152 26.398 145.69 26.8601 145.226C29.1802 143.139 31.9602 141.981 34.858 141.17C35.669 140.937 36.3647 140.821 37.0603 140.59C37.4091 140.474 37.8713 140.359 38.1047 140.01C38.2204 140.01 38.3358 139.895 38.4515 139.895C41.696 139.779 42.507 137.461 47.0293 142.097C47.145 142.212 47.2604 142.328 47.376 142.446C48.6516 143.488 48.7672 144.068 47.956 145.69C46.5648 146.037 45.1738 146.386 43.6669 146.732C43.4359 147.543 43.087 148.355 43.4359 149.168C43.5515 149.399 43.5515 149.63 43.4359 149.864C42.0447 158.788 38.1047 167.017 37.5248 168.059C36.4803 169.915 35.2069 171.653 32.7712 174.781C32.0756 175.708 27.9046 179.302 27.9046 179.302C27.209 180.113 26.1645 180.462 25.3535 180.808C24.4269 181.157 23.5002 181.273 22.4557 181.388C20.3713 181.388 18.2847 181.388 16.1979 181.273C-0.259987 179.535 -1.7666 158.208 1.24664 140.821C2.05765 135.839 3.565 130.623 5.53616 125.754ZM9.24524 178.375C9.12742 178.375 9.12742 178.49 9.24524 178.49V178.375Z" fill="black"/>
<path d="M87.1277 141.865C86.7788 142.212 86.4321 142.676 86.5477 143.138C83.8834 144.878 84.3455 152.992 78.5498 155.889C78.2031 156.005 78.0877 156.467 77.6232 156.12C77.2767 156.585 70.9008 156.351 69.3942 150.44C69.2786 150.209 69.2786 149.863 69.2786 149.629C68.9297 147.427 69.2786 145.109 69.7407 142.792C69.2786 143.256 60.2386 151.485 57.2251 149.978C55.0229 149.167 53.5163 147.312 53.1672 144.763C53.1672 135.605 60.934 131.78 66.2651 126.68C66.2651 126.218 66.7272 125.985 66.8451 125.638C68.1182 125.407 68.3517 126.334 69.2783 126.449C70.0894 127.26 71.2495 127.609 71.9427 128.536C71.4806 129.927 69.6248 130.043 69.0473 131.316C68.6984 131.316 68.5827 131.549 68.2338 131.665C67.7717 132.129 59.0782 139.663 58.6137 143.023C57.9205 144.298 57.456 145.805 57.8027 147.312C61.8607 145.458 66.3805 141.516 69.5094 138.503C69.974 138.041 70.9006 137.692 71.2495 137.112C71.3652 136.881 71.2495 136.534 71.3652 136.301C71.4808 135.721 72.0608 135.143 71.9429 134.447C71.9429 134.214 72.1764 134.214 72.1764 133.983C72.7564 131.78 73.2185 129.232 73.9141 127.145C74.494 125.289 75.4207 123.783 75.3053 121.58C76.232 122.509 77.3921 121.814 78.2031 122.391C78.5499 122.509 78.3188 122.16 78.5498 122.276C79.1298 123.205 79.8254 123.898 80.6367 124.478C81.6812 127.029 82.0279 138.618 80.0567 150.209C82.8389 146.5 85.0414 142.211 87.359 138.04C87.359 137.807 87.2433 137.923 87.2433 137.692C88.0544 136.765 88.4035 135.489 89.0991 134.447C89.0205 134.291 88.9427 134.175 88.8656 134.098C89.2145 133.751 89.4456 133.402 89.6766 132.94C89.6766 133.751 89.6766 134.447 89.7923 135.258C89.6766 135.605 89.6766 136.069 89.5612 136.185C89.9101 138.967 87.4742 139.894 87.1277 141.865Z" fill="black"/>
<path d="M88.7475 119.378C88.6319 117.756 88.981 116.018 89.6742 114.047C90.2542 114.396 90.9498 114.858 91.4143 115.207C91.4143 115.323 91.2987 115.323 91.2987 115.438C91.4143 115.322 91.4143 115.438 91.4143 115.554C91.53 115.438 91.53 115.323 91.6454 115.323C92.1099 115.669 92.5721 116.134 92.8055 116.598C93.0366 116.598 92.9212 116.365 92.9212 116.249C92.9983 116.326 93.0753 116.365 93.1522 116.365C93.0366 116.599 92.9212 116.481 93.2679 116.599C93.3835 117.294 94.0789 117.756 94.5435 118.221C94.8902 119.263 95.008 120.192 95.008 121.234C95.2391 122.625 95.7036 124.132 95.819 125.638C95.819 126.334 95.9346 127.145 96.0501 127.841C96.2811 128.536 96.63 129.463 96.399 129.928V138.156C96.1655 138.041 96.0501 138.272 95.819 138.388C95.819 138.272 95.7034 138.272 95.7034 138.156C95.5855 138.156 95.7034 138.388 95.5855 138.503C95.7034 138.272 95.7034 138.503 95.819 138.388C95.9347 138.503 95.4701 138.619 95.819 138.968C95.819 138.968 95.9347 138.852 95.7034 138.734C95.819 138.618 95.9344 138.734 96.0501 138.734C96.1657 138.852 95.9344 138.852 96.0501 138.968C96.1657 138.968 96.2811 138.967 96.2811 139.083C97.4413 137.345 98.1369 135.374 99.6435 133.983C99.7592 132.941 101.73 132.592 101.266 131.201C101.266 131.085 101.15 131.317 101.15 131.201C101.73 130.159 103.121 130.97 104.163 130.739C104.859 131.317 105.67 131.55 106.25 132.361C105.901 133.519 106.481 135.955 105.901 137.346C105.98 137.346 106.019 137.306 106.019 137.228C106.366 138.157 105.786 138.968 106.135 139.43C105.786 141.517 106.83 145.341 106.83 145.341C107.177 145.575 106.946 145.806 107.408 146.152H107.293C109.495 148.819 110.886 145.69 113.553 144.415C113.668 144.068 114.015 143.835 114.364 143.603C114.479 143.257 114.71 143.257 114.71 142.792C114.944 142.908 115.059 143.139 115.29 143.372C115.175 143.719 114.826 143.835 114.944 144.299C114.826 144.299 114.595 144.53 114.595 144.299C114.364 144.299 114.71 144.646 114.826 144.53C114.944 144.53 114.595 144.646 114.71 144.764C114.479 144.53 114.595 144.879 114.248 144.879C114.364 144.995 114.479 144.764 114.595 144.879C114.479 144.879 114.248 145.459 114.015 145.226C113.899 145.226 114.015 145.342 113.899 145.342C113.899 145.46 114.015 145.46 114.015 145.46C114.015 145.806 113.784 145.691 113.668 145.922C113.437 145.922 113.552 145.691 113.319 145.575C113.319 145.691 113.319 145.922 113.553 146.037C113.319 147.082 110.306 149.168 110.306 149.284L107.177 149.63C105.09 149.399 102.888 147.893 102.077 146.386C101.266 145.575 100.455 144.415 100.224 143.488C98.8325 140.475 99.7592 137.346 100.686 134.564C100.339 134.795 99.9902 135.259 99.8748 135.606C99.7592 135.606 99.7592 135.49 99.7592 135.49C99.4124 136.417 98.6014 138.157 98.1369 139.199C98.1369 139.314 98.0212 139.199 97.9058 139.199C98.1369 139.548 97.788 140.243 97.5569 140.243C97.788 140.936 97.2102 140.936 97.0924 141.285C96.7457 141.865 96.2814 143.139 96.1657 143.834C96.1657 144.183 96.2814 144.879 95.9347 144.994C95.9347 145.226 95.9347 145.459 96.0503 145.574C95.9347 145.459 95.9347 145.805 95.8193 145.574C95.8193 145.805 95.9349 145.69 96.166 145.805H96.0503C95.9347 145.805 96.2814 152.877 96.2814 152.877C96.0503 152.877 96.0503 153.108 95.9347 152.877C95.9347 152.877 96.0503 156.006 96.1657 156.352C95.9347 156.237 95.819 156.586 96.0501 156.701C96.0501 156.701 95.9344 156.817 96.0501 156.817C96.0501 156.932 95.9344 156.817 95.9344 156.817C95.9344 156.932 95.9344 157.048 96.0501 157.048C95.5855 157.512 95.3545 160.295 95.3545 160.295L95.2388 160.177C95.1232 160.295 95.1232 160.526 94.8899 160.526C94.8899 160.641 95.0078 160.526 95.1234 160.641C95.0078 160.757 94.7745 160.641 94.6589 160.757C94.6589 160.873 94.8899 160.757 95.0078 160.873C95.0078 160.873 94.8899 160.873 94.8899 160.988C94.7743 160.988 94.6589 160.873 94.6589 160.873C90.3698 165.511 90.95 163.191 87.9365 163.191C87.9365 162.959 87.7055 162.844 87.5898 162.844C87.7055 162.959 87.7055 162.844 87.8209 162.959C87.8209 163.191 87.7052 162.959 87.472 162.959V162.728H87.2409C87.2409 162.728 87.2409 162.38 87.3566 162.264C87.1255 162.264 87.1255 162.613 87.1255 162.613C85.9654 162.497 84.9233 160.988 84.3433 159.946C84.459 160.062 84.459 159.946 84.5768 159.946C84.459 159.946 84.3434 159.83 84.2279 159.715C84.459 159.25 84.459 158.555 84.3436 158.093C84.4592 158.208 84.5771 157.744 84.5771 157.513H84.8081C84.5771 157.397 84.6925 157.282 84.6925 156.817C84.9235 156.817 84.6925 156.817 84.8081 157.048C84.8081 156.971 84.8467 156.932 84.9238 156.932C84.9238 156.701 84.8081 156.817 84.5771 156.817C84.9238 156.352 84.6927 156.006 84.8081 155.426C84.8081 155.657 85.1548 155.31 84.8081 155.31C84.9238 155.194 85.0392 155.426 85.1548 155.31L84.9238 155.194C84.9238 155.194 85.5037 150.094 85.3883 148.703L86.5461 143.256C86.315 143.256 86.315 142.907 86.315 143.023C86.315 143.023 86.8949 139.429 86.7795 139.429L87.7062 130.158C87.7062 130.274 87.5905 130.274 87.5905 130.274C87.4727 129.116 88.6326 120.77 88.5172 119.378L88.7475 119.378ZM89.6742 159.599C89.5971 159.52 89.5201 159.442 89.4432 159.365C89.4432 159.481 89.3275 159.599 89.3275 159.714C89.5586 159.83 89.5586 159.599 89.6742 159.599Z" fill="black"/>
<path d="M137.888 176.172C137.657 177.563 137.888 178.954 137.541 180.345C137.308 180.112 137.077 180.576 136.961 180.576C136.961 180.692 136.846 180.46 136.961 180.46C136.728 180.345 136.846 180.807 136.612 180.923C135.221 182.429 128.848 179.996 128.383 180.576C124.908 179.534 124.674 175.476 125.023 163.307H125.254C124.908 162.031 125.37 160.409 125.254 159.018C124.443 159.48 123.168 160.06 121.777 160.294C121.661 160.06 120.966 160.294 120.85 159.945C119.459 160.176 118.532 159.365 117.49 158.903C115.17 156.931 113.663 157.162 112.852 151.369L112.736 151.485V150.789C112.736 149.514 112.968 148.354 113.085 147.08C113.201 146.731 113.316 146.385 113.085 146.036C113.781 144.763 114.012 143.023 114.592 141.749C114.708 141.631 114.708 141.749 114.823 141.749L114.707 141.285C120.618 132.476 122.01 134.447 123.052 133.402C135.454 131.665 125.719 124.711 131.861 105.356C132.556 103.269 134.294 100.371 133.832 97.3578C133.832 97.2422 133.483 97.2422 133.483 97.0089C133.483 96.7779 133.832 96.7779 133.714 96.429C133.948 96.429 134.179 96.6624 134.294 96.7779C136.612 97.0089 138.003 98.1691 138.583 100.138C138.237 103.036 137.772 174.201 137.772 174.201C138.237 174.316 137.423 175.707 137.888 176.172ZM127.572 138.387C125.023 136.88 122.821 138.734 121.546 139.894C121.546 140.589 120.85 141.054 120.504 141.516C120.735 142.211 119.574 142.676 119.808 143.487C119.459 143.603 119.228 144.183 119.459 144.529C118.532 145.689 118.648 147.542 117.837 148.818C117.837 149.629 117.952 150.44 117.837 151.369C117.721 151.947 117.372 152.411 117.372 152.758C117.372 153.338 117.837 153.687 117.721 154.265C117.837 154.498 118.068 154.382 118.068 154.613C118.417 156.467 119.924 157.627 121.546 157.511C122.126 157.396 122.937 156.931 123.517 156.585C124.443 156.005 125.139 155.309 125.719 154.96L126.646 142.211C126.877 141.98 126.992 141.631 127.108 141.284C126.992 141.169 126.992 141.631 126.877 141.284C127.226 140.82 127.226 139.428 127.688 139.197C127.688 138.966 127.572 139.197 127.457 139.197C127.572 138.966 127.572 138.733 127.572 138.387Z" fill="black"/>
<path d="M180.999 132.36C180.768 132.825 180.652 133.402 180.419 133.518C180.072 136.765 176.595 137.111 175.553 139.429C174.973 139.663 174.392 140.125 174.392 140.705C174.046 140.82 173.812 140.936 173.581 141.169C173.466 141.865 167.439 150.209 166.279 150.209C159.906 153.338 165.468 150.209 160.717 154.034C158.515 154.96 156.775 156.351 154.457 156.351C152.95 156.236 151.677 155.889 150.17 155.772C146.577 153.569 143.563 150.789 142.752 146.501C142.634 145.921 142.634 145.34 142.519 144.763V144.414C141.708 137.112 145.996 129.347 147.039 128.652C147.157 128.536 147.039 128.652 147.157 128.421C147.272 128.187 147.503 127.956 147.85 127.61C148.199 127.145 148.545 126.565 149.01 126.334C150.286 124.478 153.068 122.625 155.386 121.58C155.617 121.465 156.197 121.465 156.428 121.58C156.428 121.58 156.774 122.16 156.892 121.814C157.239 122.045 157.47 122.276 157.703 122.392C157.819 122.625 158.05 122.856 158.514 122.972C158.514 123.552 159.094 123.436 159.441 123.552C159.905 123.667 160.832 124.478 161.179 124.943L161.063 125.058L161.296 125.174C163.265 127.145 158.976 134.448 158.861 134.91C158.745 134.91 158.745 134.794 158.63 134.794C158.399 135.839 156.774 137.461 156.774 137.461C156.774 137.461 154.689 139.779 154.689 139.894H154.574C154.574 140.01 154.456 140.01 154.456 140.125C154.225 140.359 153.994 140.705 153.76 140.936C153.645 140.936 153.645 141.054 153.529 141.054L153.298 141.285C152.834 141.632 152.138 142.096 152.138 142.212C152.254 142.327 152.022 142.445 151.907 142.327C151.676 142.792 150.98 142.561 150.747 143.256C150.747 143.139 150.631 143.256 150.631 143.139C150.4 143.372 150.051 148.008 150.285 148.472C150.169 148.588 150.169 148.472 150.169 148.472C150.4 149.283 149.473 148.934 151.791 151.717C152.949 152.063 153.993 152.412 155.036 152.181C156.196 152.063 157.702 151.486 158.86 151.021C161.296 149.63 163.498 147.312 163.498 147.312C163.498 147.312 163.614 147.312 163.729 147.197C163.845 147.081 164.076 146.966 164.191 146.848C165.005 146.27 166.394 144.994 166.974 144.53C167.669 143.952 168.249 143.488 168.829 142.908C170.22 141.632 171.609 140.359 172.885 138.968C174.276 137.576 175.667 136.301 177.058 134.91C177.174 134.679 176.943 134.679 177.058 134.448C178.334 133.637 179.26 132.13 180.418 131.201C180.418 130.97 180.418 130.854 180.303 130.739C180.767 130.39 181.229 130.043 181.578 129.579C181.462 130.505 181.23 131.434 180.999 132.36ZM154.575 132.591C153.645 133.287 153.414 134.447 152.719 135.489V135.954C152.603 135.954 152.488 135.838 152.488 135.954C152.023 136.534 152.254 137.227 151.677 137.691V137.922C151.559 138.618 151.097 139.429 151.097 140.125C151.444 139.429 152.023 138.967 152.255 138.156C152.834 137.576 153.299 136.88 153.646 136.3C153.646 136.185 153.761 136.069 153.879 135.953C154.341 135.489 154.806 134.793 155.152 134.213C155.268 133.982 155.386 133.751 155.617 133.751C155.617 133.518 155.733 133.518 155.733 133.402C156.428 132.707 156.775 131.896 157.355 131.084C158.284 129.809 159.095 128.42 159.211 126.449V126.333C158.631 126.218 158.631 125.638 157.819 125.753L154.575 132.129C154.69 132.36 154.575 132.36 154.575 132.591Z" fill="black"/>
<path d="M213.912 135.258C214.261 137.46 212.29 138.271 211.944 139.894C211.71 140.125 211.479 140.589 211.479 140.936C210.668 141.4 210.668 143.138 209.972 143.718C209.972 143.833 210.088 143.834 210.088 143.951C209.624 144.067 208.697 152.411 200.933 150.325C199.888 149.629 199.077 148.587 198.615 147.542C197.804 144.762 198.497 138.04 198.961 135.027C199.077 133.751 199.426 132.36 199.31 131.316C199.077 130.273 198.497 129.116 197.804 128.187C195.368 128.536 192.819 133.287 192.586 134.098C190.963 135.489 190.268 137.691 188.646 138.967C188.761 139.313 188.53 139.313 188.415 139.547C188.53 139.662 188.53 140.124 188.415 140.242C188.492 140.242 188.569 140.319 188.646 140.473C188.53 140.704 188.415 141.053 188.646 141.284C187.835 146.035 187.488 161.105 186.677 162.147C186.793 162.378 186.677 162.147 186.559 162.147C186.559 162.958 184.937 162.958 185.168 163.538C184.821 163.189 184.475 163.189 184.01 163.307C183.895 163.307 184.01 163.538 184.01 163.654C183.315 163.654 183.084 163.538 182.039 163.538C182.039 163.654 182.155 163.654 182.155 163.654C182.273 163.885 181.693 163.654 181.693 163.422C181.228 163.307 180.882 163.422 180.766 163.074C180.533 163.307 180.186 162.843 179.953 162.727C179.953 162.611 180.07 162.496 180.07 162.378C179.49 160.64 178.679 153.222 178.446 153.107C178.446 152.18 178.564 151.485 178.446 150.325V149.978C178.564 149.978 178.564 149.862 178.564 149.862L178.446 149.745C178.564 149.745 178.564 149.629 178.564 149.514C178.564 149.629 178.679 149.629 178.795 149.629C178.795 149.049 178.91 148.007 178.679 147.311C178.756 147.234 178.756 147.196 178.679 147.196V146.847C178.795 146.731 178.91 146.5 178.679 146.269C178.679 144.644 178.563 142.907 178.214 141.169C179.259 139.198 178.33 134.098 179.025 128.767C179.141 127.144 180.301 121.349 180.417 120.884C180.532 119.958 180.532 119.031 181.112 118.335C181.343 116.598 182.619 115.786 182.968 114.046C183.661 115.207 185.286 115.207 185.863 116.364C186.097 116.48 186.097 116.713 186.328 116.829C186.444 117.293 186.444 117.64 186.792 117.755C186.559 118.22 187.024 118.682 187.139 119.031L188.066 135.142C190.268 132.129 192.008 128.767 195.948 127.491C196.644 126.913 197.804 126.913 198.846 127.029C201.279 127.491 202.67 129.347 203.481 131.549C203.25 131.78 203.715 132.245 203.366 132.36C205.104 135.489 202.555 146.616 202.555 147.08C202.439 147.891 202.902 148.472 203.366 149.049C204.526 148.934 205.337 147.891 205.915 147.196C208.35 143.951 210.204 140.358 212.175 136.765C212.175 136.649 212.059 136.649 212.059 136.534C212.755 135.838 212.986 134.678 213.566 133.867C213.566 133.751 213.45 133.636 213.45 133.518C213.681 133.287 213.797 132.94 214.028 132.707C214.028 133.287 214.146 133.867 214.146 134.447C214.028 134.794 214.146 135.143 213.912 135.258Z" fill="black"/>
<path d="M64.23 2.64468C64.5323 1.67721 63.7003 1.13589 63.9958 0.288417C64.4949 0.194254 64.8773 -0.029338 65.2397 0.114322C65.8825 -0.342251 66.9322 0.70515 67.6619 0.869816C67.5756 0.946757 67.4913 0.982812 67.4089 0.977983C67.4866 1.06426 67.5639 1.15134 67.6407 1.23923C67.7715 1.12164 67.7785 0.999232 67.8939 1.12865C67.8867 1.25347 68.386 1.1569 68.3577 1.64896C68.7332 1.5478 68.8216 2.16927 69.3122 2.19728C69.7617 2.96242 70.5868 3.62858 71.1588 4.40072C71.4859 5.15886 72.0721 5.68594 72.5287 6.32866L72.5005 6.82072C72.7395 6.95738 72.7113 7.4492 72.9418 7.71045C75.2853 7.71986 77.6346 7.60929 80.0932 7.75053C84.142 8.10594 87.7591 9.54664 90.5966 11.6839C90.6907 12.183 91.1686 12.4561 91.53 12.5995C91.7336 13.3528 92.9282 14.0378 93.1308 14.7887C93.1355 14.7071 93.179 14.6686 93.2614 14.6733C93.4862 15.0545 93.5874 15.4312 93.718 15.316C94.4935 16.8414 95.1174 18.8493 95.121 20.9467C94.9904 21.0621 94.8467 21.4246 94.9621 21.554C94.436 22.1402 94.3725 23.2465 93.8382 23.9552C93.7605 23.8689 93.7239 23.7849 93.7286 23.7033C93.5992 23.8187 93.7216 23.8257 93.7076 24.0706C93.4616 24.0563 93.4403 24.426 93.2097 24.1671C93.2867 24.2534 93.3228 24.3374 93.3181 24.419C93.0721 24.4047 93.1887 24.5344 93.0721 24.4047C93.0651 24.5271 92.8048 24.7601 92.5661 24.6237C92.5238 25.3606 89.18 27.757 89.194 27.5121C89.0716 27.5051 89.0576 27.75 89.0504 27.8748C88.2983 28.0771 88.01 28.7997 87.1354 28.9975C87.0789 29.9814 83.2786 31.7353 83.0538 31.3516C83.0326 31.7213 82.7865 31.707 82.6499 31.9472C80.6408 32.5711 78.7189 33.8163 77.064 34.7084C76.9416 34.7014 77.064 34.7084 76.9486 34.579C76.2989 35.158 75.5468 35.3606 74.4333 35.4216L74.4475 35.1744C74.4475 35.1744 74.3038 35.537 74.3181 35.2898C74.1872 35.4074 74.0578 35.5228 73.9284 35.6382C73.6824 35.624 73.5447 35.8618 73.0527 35.8336C72.916 36.0738 73.0102 36.5726 72.8737 36.8104C72.6207 36.9186 72.6277 36.7962 72.6207 36.9186C72.4911 37.0364 72.7443 36.9256 72.7443 36.9256C73.2951 38.0672 71.7781 49.4511 71.9956 49.9574C71.8792 49.8256 71.865 50.0728 71.865 50.0728C71.9427 50.1591 71.9333 50.3231 71.8367 50.5649C71.9534 50.6943 72.1627 51.3228 71.7802 51.5466L70.475 80.7006C70.0124 80.1806 66.3755 96.2512 63.5153 88.071C63.3787 88.3113 63.2623 88.1792 63.2763 87.9344C63.1326 88.297 62.9078 87.9131 62.6618 87.8991C62.7714 88.1509 62.5254 88.1369 62.6478 88.1439C60.1336 88.9868 61.3802 86.5926 60.9176 86.0726C60.9529 85.4581 61.8274 85.2603 61.1178 84.726C61.2484 84.6106 60.129 80.4771 61.1718 81.6471L61.1788 81.5247C60.5291 82.1037 62.0075 47.7803 62.6007 48.1828C62.6077 48.0603 62.4923 47.9309 62.3687 47.9239C62.7511 47.7004 62.3969 47.4319 62.657 47.2013C62.5418 47.0695 62.2885 47.18 62.6642 47.0765C61.9686 46.2973 64.2896 3.75848 64.3459 2.77676C64.3531 2.65193 64.2228 2.76951 64.23 2.64468ZM61.2076 81.0324C60.8239 81.256 60.4555 81.2347 61.07 81.2702C60.8309 81.1336 61.1936 81.2772 61.2076 81.0324ZM61.3099 77.0918C61.0639 77.0775 61.1805 77.2072 61.1735 77.3296C61.1805 77.2072 61.3029 77.2142 61.3099 77.0918ZM68.0188 76.2443C67.9317 76.3212 67.8858 76.4005 67.8811 76.4821C67.9978 76.6115 68.2578 76.381 68.1412 76.2515C68.0549 76.3285 68.0141 76.3259 68.0188 76.2443ZM84.9344 26.5282C85.8232 26.0857 86.4939 25.137 87.2673 24.565C88.2265 22.8937 89.7718 21.7495 89.7614 19.7745C89.7307 18.1691 88.8398 16.5167 87.9194 15.3537C86.8839 14.059 85.4796 12.7455 83.9095 12.1617C82.9408 11.8604 81.5885 11.7827 80.8716 11.3708C80.6186 11.4789 73.6121 11.0764 73.36 11.1873C73.5483 12.183 73.8545 13.3105 73.6956 13.9178C73.6814 14.165 73.8852 14.9159 73.8569 15.4077C72.5034 30.3766 70.1836 36.4099 84.1616 27.1C84.4146 26.9918 84.5508 26.7518 84.9344 26.5282ZM71.3522 50.4118C71.4758 50.4188 71.4828 50.2964 71.5982 50.426C71.6052 50.3036 71.7288 50.3106 71.6052 50.3036C71.4685 50.5439 71.3661 50.167 71.2367 50.2824L71.3522 50.4118ZM69.6149 80.6509L69.861 80.6652C69.9032 79.9283 69.6362 80.2839 69.6149 80.6509Z" fill="black"/>
<path d="M121.36 51.5579C120.97 51.9063 120.573 52.3771 120.668 52.8762C117.735 54.5569 117.731 63.1891 111.41 65.9101C111.033 66.0113 110.882 66.4964 110.412 66.0985C110.015 66.5693 103.268 65.936 102.03 59.5756C101.922 59.3214 101.943 58.9541 101.957 58.7071C101.722 56.3508 102.232 53.9144 102.864 51.4826C102.345 51.9464 92.255 60.1241 89.1512 58.342C86.8655 57.3463 85.3801 55.289 85.1672 52.563C85.7249 42.8528 94.1936 39.2676 100.159 34.1854C100.187 33.6934 100.693 33.4746 100.837 33.1144C102.203 32.9449 102.393 33.943 103.369 34.1219C104.18 35.0329 105.388 35.473 106.07 36.497C105.493 37.9447 103.519 37.9541 102.827 39.27C102.457 39.2488 102.321 39.489 101.945 39.5902C101.425 40.054 91.7468 47.5137 91.05 51.0516C90.2356 52.3605 89.6518 53.9306 89.9282 55.55C94.3443 53.8292 99.3784 49.9262 102.88 46.9202C103.4 46.4564 104.405 46.1459 104.809 45.5503C104.945 45.3124 104.844 44.9358 104.981 44.6982C105.14 44.091 105.789 43.5117 105.709 42.7657C105.723 42.5208 105.968 42.5348 105.982 42.29C106.732 39.9878 107.378 37.3136 108.243 35.1432C108.971 33.2107 110.046 31.6688 110.057 29.3266C110.984 30.367 112.255 29.7008 113.08 30.3648C113.443 30.5084 113.218 30.1248 113.457 30.2612C114.015 31.2803 114.709 32.0595 115.534 32.7259C116.486 35.4919 116.149 47.8056 113.353 59.9781C116.529 56.2142 119.126 51.8003 121.839 47.5161C121.853 47.2713 121.722 47.3867 121.736 47.1419C122.653 46.2072 123.1 44.8749 123.901 43.8109C123.829 43.643 123.754 43.5159 123.677 43.4296C124.067 43.0812 124.334 42.7258 124.608 42.2502C124.559 43.1095 124.516 43.8461 124.589 44.7149C124.446 45.0775 124.418 45.5669 124.287 45.6847C124.486 48.6555 121.848 49.4911 121.36 51.5579Z" fill="black"/>
<path d="M159.675 60.9128C159.675 60.9128 152.412 73.5679 150.476 75.0603C149.485 75.1262 149.074 75.8442 148.221 75.6699C148.098 75.6629 148.091 75.7877 148.084 75.9101C146.356 75.9338 142.078 77.4143 139.395 72.5746C139.287 72.3203 139.048 72.1839 138.809 72.0473C136.109 58.9426 138.169 63.8719 138.839 52.1937C139.433 52.5962 139.714 51.9959 139.62 51.4969C139.243 51.6004 139.236 51.7229 139.085 52.2077C138.962 52.2007 138.969 52.0783 138.976 51.9534C138.846 52.0713 133.829 57.8242 133.829 57.8242C132.969 57.7747 132.428 58.6082 131.575 58.4362C131.437 58.6741 130.952 58.5234 130.692 58.754C128.132 58.2385 125.839 57.3652 124.34 55.5527C123.899 54.6654 123.456 53.7754 123.15 52.6478C122.526 50.64 123.251 46.61 124.014 44.0652C124.028 43.8179 124.295 43.4649 124.316 43.0953C124.453 42.8575 124.352 42.4808 124.359 42.3584C124.495 42.1182 124.608 42.2502 124.608 42.2502C124.506 41.8735 124.956 40.5413 124.991 39.9268C125.48 37.86 125.882 35.1694 126.023 32.7095C126.192 29.76 126.477 26.9399 126.51 24.228C126.524 23.9832 126.148 24.0843 126.292 23.7243C126.538 23.7386 126.524 23.9832 126.893 24.0044C127.139 24.0187 127.153 23.7738 127.399 23.7878C127.876 24.0609 128.62 23.9808 129.228 24.1387C129.8 24.9108 130.777 25.0897 131.349 25.864C131.574 26.2453 131.545 26.7373 131.633 27.3588C131.829 28.2345 132.415 28.7619 132.359 29.7458C132.352 29.8682 131.43 37.3375 131.402 37.8294C132.156 39.722 129.511 40.6801 130.181 44.0485C128.983 45.5834 129.442 48.3233 128.707 50.3785C128.693 50.6233 128.809 50.7527 128.795 51C128.58 52.5913 128.474 54.4345 129.38 55.8422C131.635 55.2325 132.261 52.9255 133.82 51.5343C135.978 48.3281 139.185 46.1696 141.11 42.7044C141.441 41.2427 141.744 40.2728 141.979 38.3142C142.211 38.573 142.103 38.3212 142.225 38.3284C141.878 37.9378 143.309 32.3469 143.453 31.9844C143.605 31.5018 143.242 31.356 143.734 31.3842C143.612 31.3772 143.488 31.37 143.502 31.1254C143.626 31.1324 143.619 31.2548 143.741 31.262C143.753 28.9198 145.737 26.5681 144.924 23.5599C148.408 23.0208 151.382 24.9181 152.716 27.4605C153.811 29.8687 153.055 32.2908 153.181 34.3953C152.921 34.6259 153.051 34.5107 152.784 34.8661L152.906 34.8731C153.009 35.2473 153.256 41.6761 153.235 42.0433L152.866 42.0221C153.003 41.7842 153.242 41.9209 153.01 41.6618C152.887 41.6548 152.989 42.0291 152.743 42.0148C153.098 42.2833 152.714 42.5069 152.953 42.6433C152.96 42.5209 153.084 42.5279 153.105 42.1585C153.098 42.2833 152.72 46.7015 152.83 46.9536C152.823 47.076 152.706 46.9466 152.584 46.9393C152.446 47.1772 152.83 46.9536 152.809 47.323C152.446 47.1769 152.787 47.6902 152.411 47.7938C152.888 48.0669 152.766 48.0599 152.998 48.3187C152.6 48.7895 153.404 49.8229 152.906 49.9171C153.014 50.1713 153.072 55.5995 152.741 57.0615C152.145 58.8764 152.871 61.2609 152.076 62.2026C152.172 62.7016 152.02 63.1865 152.108 63.8079C151.739 63.7867 152.045 64.9142 151.735 66.0065C151.721 66.2514 151.461 66.4844 151.447 66.7292C151.433 66.9764 151.541 67.2282 151.534 67.3507C151.527 67.4755 151.137 67.8215 151.499 67.9651C151.095 68.5608 150.95 68.9208 150.908 69.6601C154.727 65.4394 157.619 60.1783 160.859 55.3078C160.873 55.063 160.75 55.056 160.764 54.8088C161.681 53.8741 162.135 52.4218 163.059 51.365C162.95 51.1108 162.834 50.9814 162.834 50.9814C163.102 50.626 163.498 50.1576 163.765 49.8019C163.723 50.5388 163.674 51.4003 163.746 52.2666C163.596 52.7517 163.568 53.2435 163.438 53.3589C163.759 56.3391 160.869 57.2829 160.373 59.4721C159.984 59.8205 159.58 60.4137 159.675 60.9128ZM151.882 57.0122C151.882 57.0122 152.121 57.1489 152.142 56.7816C151.889 56.8898 152.013 56.897 151.774 56.7604C151.767 56.8828 151.76 57.0052 151.882 57.0122Z" fill="black"/>
<path d="M175.882 25.7094C175.882 25.7094 176.114 25.9682 175.875 25.8318C175.661 27.4232 175.445 29.0143 175.36 30.4902C175.325 31.1047 175.167 31.712 175.139 32.204C175.069 33.4327 175.345 35.0524 175.036 36.1447C175.249 38.8682 174.617 41.3 174.243 43.4986C174.007 45.457 174.256 47.5687 173.999 49.8967C174.122 49.9037 174.129 49.7813 174.129 49.7813C174.122 49.9037 174.223 50.2803 173.977 50.2661C174.259 60.3952 173.407 81.6825 173.407 81.6825C173.407 81.6825 173.522 81.8119 173.515 81.9343C173.31 85.4983 173.513 90.5665 174.29 94.1891C174.168 94.1821 174.161 94.3046 174.161 94.3046C174.154 94.427 174.161 94.3046 174.276 94.434C174.147 94.5494 174.508 94.6952 174.14 94.6742C174.372 94.933 174.344 95.4251 174.452 95.6769C174.206 95.6627 174.199 95.7851 174.076 95.7781C174.445 95.7993 173.933 96.1407 173.823 95.8887C173.577 95.8744 173.823 95.8887 173.809 96.1335C173.687 96.1265 171.372 95.6226 169.431 92.9228C169.3 93.0382 169.395 93.5372 169.497 93.9137C169.142 93.6454 169.279 93.4076 168.918 93.2639C168.904 93.5088 169.142 93.6452 169.121 94.0148L168.875 94.0006C169.332 94.6433 170.174 97.1572 168.509 96.0768C167.752 92.0869 163.234 97.7459 161.644 93.2144C161.515 93.3298 161.391 93.3226 161.269 93.3156C161.283 93.0708 161.174 92.8189 160.928 92.8047C160.936 92.6799 161.065 92.5645 161.189 92.5717C161.065 92.5647 160.587 92.2916 161.079 92.3199C159.804 90.8886 162.682 53.6862 162.218 53.1661C162.301 53.1708 162.34 53.2139 162.335 53.2955C162.247 52.674 162.434 51.5747 162.331 51.2005C162.339 51.0757 162.585 51.0899 162.592 50.9675C162.599 50.8451 162.462 51.0829 162.462 51.0829C162.216 51.0687 162.599 50.8451 162.353 50.8311L162.476 50.8381C162.483 50.7157 162.491 50.5908 162.367 50.5838C162.372 50.5022 162.415 50.4638 162.498 50.4684C162.505 50.346 162.381 50.339 162.266 50.2096C162.273 50.0872 162.512 50.2238 162.519 50.1014C162.533 49.8542 162.388 50.2168 162.402 49.9696C162.416 49.7248 162.547 49.6094 162.301 49.5954C162.177 49.5884 162.437 49.3551 162.43 49.4799C162.044 47.6061 163.462 37.9454 162.768 37.1662C163.488 35.3561 163.615 33.1433 163.858 31.0622L163.981 31.0692L167.69 9.45262C167.855 8.72298 167.904 7.86126 167.954 7.00219C168.214 6.7692 168.106 6.51736 167.881 6.13371C168.134 6.02554 168.481 6.4162 168.596 6.54561C168.85 6.43745 168.495 6.16896 168.509 5.92413C168.871 6.06779 168.966 6.56686 169.349 6.34087C172.526 8.99146 172.681 10.6038 174.107 17.9602C174.545 21.0698 176.066 22.5126 175.882 25.7094ZM174.48 95.1849C171.029 103.744 181.395 71.4119 182.993 60.7719C183.043 59.9126 185.27 59.7926 185.22 60.6543C183.292 72.7539 179.787 84.392 174.48 95.1849Z" fill="black"/>
<path d="M218.6 57.1447C218.211 57.4932 217.813 57.964 217.907 58.4631C214.974 60.1438 214.972 68.7759 208.649 71.497C208.275 71.5984 208.122 72.0832 207.653 71.6853C207.256 72.1561 200.509 71.5228 199.271 65.1624C199.163 64.9082 199.184 64.541 199.198 64.294C198.962 61.9377 199.473 59.5013 200.106 57.0697C199.586 57.5335 189.497 65.7113 186.392 63.9291C184.106 62.9334 182.621 60.8761 182.407 58.1501C182.964 48.4399 191.434 44.8549 197.399 39.7725C197.428 39.2804 197.934 39.0617 198.077 38.7015C199.445 38.532 199.633 39.5301 200.61 39.709C201.42 40.62 202.628 41.0601 203.31 42.0841C202.734 43.5318 200.758 43.5412 200.067 44.8571C199.699 44.8361 199.56 45.0761 199.186 45.1773C198.666 45.6411 188.989 53.1008 188.292 56.6389C187.475 57.9476 186.891 59.5177 187.169 61.1373C191.585 59.4165 196.618 55.5136 200.121 52.5076C200.641 52.0437 201.646 51.7332 202.049 51.1376C202.187 50.9 202.084 50.5231 202.223 50.2855C202.38 49.6781 203.03 49.0991 202.95 48.353C202.964 48.1082 203.209 48.1222 203.223 47.8773C203.972 45.5752 204.619 42.9009 205.485 40.7308C206.213 38.7983 207.286 37.2562 207.298 34.9141C208.225 35.9545 209.496 35.2884 210.322 35.9524C210.683 36.0958 210.459 35.7121 210.697 35.8488C211.255 36.8679 211.952 37.6473 212.775 38.3134C213.726 41.0794 213.39 53.3932 210.593 65.5657C213.769 61.8015 216.368 57.3879 219.079 53.1037C219.093 52.8589 218.964 52.9743 218.978 52.7294C219.894 51.7948 220.341 50.4625 221.141 49.3985C221.069 49.2306 220.994 49.1035 220.918 49.0172C221.306 48.6688 221.574 48.3134 221.847 47.8377C221.798 48.6971 221.756 49.4337 221.831 50.3024C221.685 50.6648 221.657 51.1545 221.527 51.2723C221.727 54.2431 219.089 55.078 218.6 57.1447Z" fill="black"/>
<path d="M234.706 68.6031L245.996 56.6707C245.685 55.6655 244.73 55.1194 243.896 54.5781C242.536 52.5255 237.552 51.2543 237.129 47.8999C237.02 47.6457 236.752 48.0011 236.773 47.6314L237.02 47.6457C236.22 44.3924 239.673 42.2479 240.775 40.2164C242.042 39.6705 242.479 38.4628 243.976 38.1803C244.36 37.9543 244.388 37.4625 244.885 37.3681C245.132 37.3823 245.111 37.7517 245.473 37.8954C245.848 37.794 246.217 37.8152 246.232 37.5682C247.048 38.3568 248.783 38.2085 249.329 39.4727C249.308 39.8424 249.061 39.8282 249.155 40.3272C247.112 41.5656 245.878 43.7147 243.473 44.8094C242.649 46.2429 241.479 47.2857 241.156 48.6228C241.479 51.603 246.236 52.4927 247.961 54.6891C249.527 53.1755 256.219 46.1605 257.432 44.3784C258.055 44.2915 258.091 43.677 258.587 43.5829C259.534 42.1564 260.948 41.1276 261.996 40.0778C261.947 40.9393 261.897 41.7986 261.732 42.5306C254.016 52.3232 257.196 46.3394 249.372 55.8778C250.198 56.5439 251.008 57.4525 251.587 58.1022C251.429 58.7097 252.029 58.9919 252.255 59.3734C252.712 60.0183 252.656 61 252.973 61.8827C252.844 61.9982 252.83 62.243 252.7 62.3606C253.338 68.4385 238.72 80.3026 234.259 69.9333C234.643 69.7097 234.794 69.2244 234.706 68.6031ZM246.637 58.4337C245.855 59.1303 245.561 59.9756 244.297 60.5193C244.167 60.6347 244.405 60.7735 244.269 61.0114L237.492 69.5023C237.614 69.5093 237.607 69.6317 237.6 69.7541C237.346 69.8647 237.195 70.3473 237.174 70.7168C237.753 71.3665 238.294 70.5354 238.678 70.3097C238.937 70.0789 239.184 70.0931 239.436 69.9847C240.846 69.0786 242.268 67.9273 243.581 66.5219C245.551 64.415 246.799 62.0211 246.752 58.5655C246.759 58.4407 246.637 58.4337 246.637 58.4337Z" fill="black"/>
<path d="M227.16 33.1641C226.814 33.3239 226.298 33.6146 226.155 33.8039C225.913 33.8577 225.698 33.9703 225.502 34.042C225.364 33.9896 225.279 34.0545 225.149 34.1021C224.861 34.1385 224.586 34.0335 224.356 33.9461C224.295 33.9228 224.256 33.8915 224.238 33.8524C224.107 33.9002 223.95 33.8889 223.767 33.8189C223.76 33.7187 223.857 33.5125 223.673 33.4422C223.712 33.3594 227.316 23.2861 227.427 23.2793C227.383 23.2954 227.377 23.3092 227.407 23.3208C227.863 22.8123 229.503 13.7352 230.418 12.1354C230.436 12.1746 230.451 12.1804 230.464 12.1527C230.462 11.8111 231.172 11.1078 231.146 11.0491C231.1 11.0317 231.061 11.114 231.035 11.0551C231.081 11.0728 231.1 11.0315 231.1 11.0315L231.008 10.9965C231.074 10.9723 231.028 10.9549 231.093 10.931C231.047 10.9137 231.001 10.8963 231.06 10.7722C231.171 10.7659 231.093 10.931 231.197 10.8246C231.457 10.3878 231.791 10.3689 232.151 10.4085C235.395 12.7168 237.163 10.5257 237.5 11.1899C236.762 11.4931 237.717 11.4187 238.077 11.4588L228.373 32.3103C227.988 32.5537 227.584 32.8379 227.16 33.1641Z" fill="black"/>
</svg>
