<svg width="57" height="136" viewBox="0 0 57 136" fill="none" xmlns="http://www.w3.org/2000/svg">
<path d="M17.864 31.4878C20.0648 31.7777 22.4399 32.7819 23.3171 34.9722C24.5904 37.1047 27.1887 38.5254 27.1951 41.3335C32.6869 48.6114 31.9425 58.6255 34.0544 67.2144C38.3676 63.5242 39.7211 57.4114 42.239 52.5161C43.8386 48.9136 46.736 46.2169 48.9226 43.0063C50.3395 41.1363 52.1721 37.6956 54.7966 39.6011C55.4442 40.0269 56.7381 40.0639 56.9597 40.8472C57.2244 45.4631 56.1427 49.7511 55.0691 54.1538C53.9414 61.2577 49.0579 66.3878 46.3289 72.6226C43.9333 75.4249 43.2334 75.0505 41.9763 78.9839C38.777 83.7215 35.0202 87.9718 30.4002 91.2661C29.2662 95.731 25.7517 100.653 28.4959 104.992C30.848 103.147 31.2535 99.5254 33.8943 97.8921C35.8812 93.1306 38.7595 88.2554 41.9314 83.9409C46.886 78.7553 57.0558 70.4792 56.7976 83.5591C56.7819 83.948 56.7806 84.3629 56.5369 84.6802C55.7041 85.9975 56.346 87.6995 55.9128 89.1626C53.9713 92.1126 53.5484 95.723 52.1707 98.8472C48.3879 103.481 45.993 109.295 42.1843 113.726C39.6702 115.444 37.4571 117.483 35.6287 119.927C32.8443 123.244 29.1301 125.783 26.6668 129.331C25.2048 130.772 23.0806 131.459 22.1355 133.503C21.4775 135.141 20.1034 135.744 18.5095 136C14.5628 134.041 14.7062 128.531 13.7175 124.826C12.7986 123.088 12.8867 121.019 12.0212 119.394C11.4759 118.827 11.1856 118.14 10.9363 117.417C10.053 114.139 8.40783 111.155 7.18531 108.046C6.71037 104.388 5.39261 100.873 4.2439 97.4702C1.5585 95.0281 0.409098 90.3826 1.14038 86.8384C0.973931 84.9272 -0.280058 83.1232 0.0573771 81.0464L0.178471 78.9331C0.833729 73.9581 2.82599 68.1147 8.23413 66.7778C16.0007 70.2301 21.0229 90.1418 23.9988 98.0024C26.3304 91.0491 27.6576 85.2892 23.8367 78.7925C22.4416 75.068 18.6893 72.2891 18.3171 67.9829C17.7766 65.8867 16.6629 63.9326 17.2927 61.8276C14.9265 58.8473 16.6471 54.7155 15.6238 51.2544C14.6682 48.2417 15.1696 45.1547 14.4607 42.1235C14.7433 38.5921 15.8748 34.3517 17.864 31.4878ZM8.97339 74.0376C0.419581 72.1629 5.07389 93.0167 7.44898 97.3687C8.60005 99.2183 8.31816 101.596 9.48999 103.358C10.2965 104.236 10.7549 105.275 10.5964 106.513C12.6435 110.201 12.7741 114.822 15.0046 118.459C18.8373 128.029 19.4014 117.098 20.3484 113.095C20.6073 109.47 19.5642 105.922 20.2273 102.27C20.0828 100.251 18.9281 98.4046 19.2146 96.3442C19.6213 93.3806 17.1942 91.1062 16.8357 88.2144C16.7355 87.644 16.4787 87.8023 15.9275 87.8403C14.7548 83.1288 11.7314 78.2174 8.97339 74.0376ZM52.5173 47.0259C51.7742 46.7926 51.1445 46.9679 50.6492 47.5532C47.8639 50.7524 45.8587 54.5198 43.6082 58.0933C42.9363 58.9103 43.3019 60.0322 43.0037 60.8579C39.6788 65.7244 37.3703 71.9232 36.3328 77.8364C35.9974 79.3749 36.9453 79.1291 37.7507 78.2935C38.8282 77.3908 38.7925 75.7538 39.8064 74.7554C42.4385 72.1867 43.8115 68.3238 46.863 66.3726C47.3252 66.0694 47.3718 66.1802 47.0564 65.606C46.9406 64.0192 48.6983 62.3677 49.4011 60.8765C50.9207 59.1389 50.3605 56.8706 51.0652 54.8687C51.3549 53.8551 52.2244 52.8822 52.1306 51.8179C51.8332 50.9896 51.7745 50.1986 52.1296 49.3774C52.1523 48.6768 53.0035 47.5282 52.5173 47.0259Z" fill="black"/>
<path d="M45.8458 0.0883173C47.5971 0.0716057 47.6643 1.95186 48.3847 3.21147C49.1473 5.11331 49.4903 7.14429 46.8391 7.09267C50.4401 8.33006 49.6863 8.4884 50.1414 12.0499C51.6761 19.4305 50.221 26.7962 46.8233 33.4442C44.9964 38.035 45.4211 43.6823 41.5541 47.3598C39.8256 48.8179 38.2308 51.5794 35.7124 50.1439C33.1004 48.6048 33.4266 43.8163 34.6919 41.4136C35.9255 39.7259 34.3545 37.8817 34.7215 36.0473C34.2055 30.2681 35.2141 24.6331 36.1922 18.9294C36.5144 12.5896 36.124 1.02734 44.3024 0L45.8458 0.0883173Z" fill="black"/>
<path d="M26.5516 123.964C24.8901 121.271 28.2923 119.075 27.4531 116.396C27.4104 115.784 28.1125 115.921 28.5112 115.959C29.5472 115.167 29.0805 112.816 30.6814 112.144C32.2098 107.042 35.4225 102.643 37.8981 97.9639C39.2492 95.9771 40.7758 93.9021 41.243 91.5833C43.963 88.9578 45.8705 85.6433 48.9186 83.2649C49.7702 82.2891 51.9061 82.1191 52.3136 83.4304C52.0257 87.2796 52.3602 91.5645 49.8737 94.7966C47.5947 97.5211 48.5055 101.977 44.9879 103.605C44.6029 106.996 41.6466 109.378 39.5874 111.8C38.0209 112.247 37.2443 113.489 37.0201 115.026C36.8082 116.089 35.2081 116.177 34.4375 116.81C31.8602 119.3 28.6535 120.923 26.5516 123.964Z" fill="#75A394"/>
<path d="M29.6945 59.3073C29.2212 59.0852 28.7479 58.8632 28.2766 58.6421C28.5291 60.0199 29.5285 61.4236 29.0209 62.9407C28.5052 64.7447 29.3943 66.4855 29.213 68.2931C29.1261 72.2706 29.2755 82.0502 25.103 73.039C22.6175 68.335 19.7414 63.7067 20.1632 58.0891C19.1489 52.4798 18.0289 45.6341 19.7519 40.3557C21.861 40.109 22.6012 42.2026 23.8556 43.5187C24.3198 44.4551 26.4806 45.9128 26.0707 46.7978C25.1498 48.9202 28.1098 51.0991 28.1841 53.4153C28.6193 55.4377 28.7266 57.6222 29.6945 59.3073Z" fill="#75A394"/>
<path d="M43.5413 5.5144C47.1355 8.38646 46.3957 17.7612 46.4951 22.2282C45.9478 26.8842 42.9977 30.7486 42.0841 35.304C41.6596 36.3727 41.0747 40.4509 40.0941 40.3907C37.2984 39.2381 38.8027 35.6883 38.6278 33.3887C38.0482 30.1903 38.4138 27.0893 39.1022 23.9355C39.8522 17.7495 39.6299 10.796 43.5413 5.5144Z" fill="#75A394"/>
</svg>
