<svg width="57" height="136" viewBox="0 0 57 136" fill="none" xmlns="http://www.w3.org/2000/svg">
<path d="M17.864 31.4879C20.0648 31.7778 22.4399 32.7821 23.3171 34.9723C24.5904 37.1049 27.1887 38.5255 27.1951 41.3336C32.6869 48.6115 31.9425 58.6256 34.0544 67.2145C38.3676 63.5243 39.7211 57.4115 42.239 52.5162C43.8386 48.9138 46.736 46.217 48.9226 43.0065C50.3395 41.1364 52.1721 37.6957 54.7966 39.6012C55.4442 40.027 56.7381 40.064 56.9597 40.8473C57.2244 45.4632 56.1427 49.7513 55.0691 54.1539C53.9414 61.2579 49.0579 66.388 46.3289 72.6227C43.9333 75.425 43.2334 75.0506 41.9763 78.984C38.777 83.7216 35.0202 87.9719 30.4002 91.2662C29.2662 95.7311 25.7517 100.654 28.4959 104.992C30.848 103.147 31.2535 99.5255 33.8943 97.8922C35.8812 93.1307 38.7595 88.2555 41.9314 83.941C46.886 78.7554 57.0558 70.4793 56.7976 83.5592C56.7819 83.9481 56.7806 84.363 56.5369 84.6803C55.7041 85.9976 56.346 87.6996 55.9128 89.1627C53.9713 92.1127 53.5484 95.7231 52.1707 98.8473C48.3879 103.481 45.993 109.295 42.1843 113.726C39.6702 115.444 37.4571 117.483 35.6287 119.927C32.8443 123.244 29.1301 125.783 26.6668 129.331C25.2048 130.772 23.0806 131.459 22.1355 133.504C21.4775 135.141 20.1034 135.744 18.5095 136C14.5628 134.042 14.7062 128.531 13.7175 124.826C12.7986 123.089 12.8867 121.019 12.0212 119.394C11.4759 118.827 11.1856 118.14 10.9363 117.418C10.053 114.139 8.40783 111.155 7.18531 108.047C6.71037 104.388 5.39261 100.873 4.2439 97.4703C1.5585 95.0282 0.409098 90.3827 1.14038 86.8385C0.973931 84.9273 -0.280058 83.1233 0.0573771 81.0465L0.178471 78.9332C0.833729 73.9582 2.82599 68.1149 8.23413 66.778C16.0007 70.2302 21.0229 90.1419 23.9988 98.0026C26.3304 91.0492 27.6576 85.2893 23.8367 78.7926C22.4416 75.0682 18.6893 72.2892 18.3171 67.983C17.7766 65.8869 16.6629 63.9327 17.2927 61.8278C14.9265 58.8474 16.6471 54.7156 15.6238 51.2545C14.6682 48.2418 15.1696 45.1548 14.4607 42.1237C14.7433 38.5922 15.8748 34.3518 17.864 31.4879ZM8.97339 74.0377C0.419581 72.1631 5.07389 93.0168 7.44898 97.3688C8.60005 99.2184 8.31816 101.596 9.48999 103.358C10.2965 104.236 10.7549 105.275 10.5964 106.513C12.6435 110.201 12.7741 114.822 15.0046 118.46C18.8373 128.029 19.4014 117.098 20.3484 113.095C20.6073 109.47 19.5642 105.922 20.2273 102.27C20.0828 100.252 18.9281 98.4047 19.2146 96.3444C19.6213 93.3808 17.1942 91.1063 16.8357 88.2145C16.7355 87.6442 16.4787 87.8024 15.9275 87.8405C14.7548 83.129 11.7314 78.2175 8.97339 74.0377ZM52.5173 47.026C51.7742 46.7927 51.1445 46.968 50.6492 47.5533C47.8639 50.7525 45.8587 54.5199 43.6082 58.0934C42.9363 58.9104 43.3019 60.0323 43.0037 60.858C39.6788 65.7245 37.3703 71.9234 36.3328 77.8365C35.9974 79.375 36.9453 79.1293 37.7507 78.2936C38.8282 77.3909 38.7925 75.754 39.8064 74.7555C42.4385 72.1868 43.8115 68.3239 46.863 66.3727C47.3252 66.0695 47.3718 66.1803 47.0564 65.6061C46.9406 64.0193 48.6983 62.3678 49.4011 60.8766C50.9207 59.1391 50.3605 56.8707 51.0652 54.8688C51.3549 53.8552 52.2244 52.8823 52.1306 51.818C51.8332 50.9897 51.7745 50.1988 52.1296 49.3776C52.1523 48.677 53.0035 47.5283 52.5173 47.026Z" fill="white"/>
<path d="M45.8458 0.0883173C47.5971 0.0716057 47.6643 1.95186 48.3847 3.21147C49.1473 5.11331 49.4903 7.14429 46.8391 7.09267C50.4401 8.33006 49.6863 8.4884 50.1414 12.0499C51.6761 19.4305 50.221 26.7962 46.8233 33.4442C44.9964 38.035 45.4211 43.6823 41.5541 47.3598C39.8256 48.8179 38.2308 51.5794 35.7124 50.1439C33.1004 48.6048 33.4266 43.8163 34.6919 41.4136C35.9255 39.7259 34.3545 37.8817 34.7215 36.0473C34.2055 30.2681 35.2141 24.6331 36.1922 18.9294C36.5144 12.5896 36.124 1.02734 44.3024 0L45.8458 0.0883173Z" fill="white"/>
<path d="M26.5516 123.964C24.8901 121.271 28.2923 119.075 27.4531 116.396C27.4104 115.784 28.1125 115.922 28.5112 115.959C29.5472 115.167 29.0805 112.816 30.6814 112.145C32.2098 107.042 35.4225 102.643 37.8981 97.9641C39.2492 95.9772 40.7758 93.9022 41.243 91.5834C43.963 88.9579 45.8705 85.6434 48.9186 83.265C49.7702 82.2893 51.9061 82.1192 52.3136 83.4305C52.0257 87.2797 52.3602 91.5646 49.8737 94.7967C47.5947 97.5212 48.5055 101.978 44.9879 103.605C44.6029 106.996 41.6466 109.379 39.5874 111.8C38.0209 112.247 37.2443 113.489 37.0201 115.026C36.8082 116.089 35.2081 116.177 34.4375 116.81C31.8602 119.301 28.6535 120.923 26.5516 123.964Z" fill="#75A394"/>
<path d="M29.6945 59.3073C29.2212 59.0852 28.7479 58.8632 28.2766 58.6421C28.5291 60.0199 29.5285 61.4236 29.0209 62.9407C28.5052 64.7447 29.3943 66.4855 29.213 68.2931C29.1261 72.2706 29.2755 82.0502 25.103 73.039C22.6175 68.335 19.7414 63.7067 20.1632 58.0891C19.1489 52.4798 18.0289 45.6341 19.7519 40.3557C21.861 40.109 22.6012 42.2026 23.8556 43.5187C24.3198 44.4551 26.4806 45.9128 26.0707 46.7978C25.1498 48.9202 28.1098 51.0991 28.1841 53.4153C28.6193 55.4377 28.7266 57.6222 29.6945 59.3073Z" fill="#75A394"/>
<path d="M43.5413 5.5144C47.1355 8.38646 46.3957 17.7612 46.4951 22.2282C45.9478 26.8842 42.9977 30.7486 42.0841 35.304C41.6596 36.3727 41.0747 40.4509 40.0941 40.3907C37.2984 39.2381 38.8027 35.6883 38.6278 33.3887C38.0482 30.1903 38.4138 27.0893 39.1022 23.9355C39.8522 17.7495 39.6299 10.796 43.5413 5.5144Z" fill="#75A394"/>
</svg>
